# xmcd
# 
# Track frame offsets:
#     150
#     11672
#     26472
#     41505
#     63421
#     81690
#     105718
# 
# Disc length: 1626
# 
# Revision: 0
# Processed by: cddbd v1.5.2PL0 Copyright (c) Steve Scherf et al.
# Submitted via: BonkEnc v1.0
# 
DISCID=55065807
DTITLE=The Get-Rites - Petal Steel Heaven
DYEAR=2008
DGENRE=Country
TTITLE0=Christmas Song
TTITLE1=The Christian Cowboy
TTITLE2=Pedal Steel Heaven
TTITLE3=South Dakota Farm
TTITLE4=Long, Long Road
TTITLE5=Fast Living, Slow Suicide
TTITLE6=Weary Traveler
EXTD=
EXTT0=
EXTT1=
EXTT2=
EXTT3=
EXTT4=
EXTT5=
EXTT6=
PLAYORDER=
